<?xml version="1.0" encoding="utf-8"?>
<!-- Generator: Adobe Illustrator 17.0.0, SVG Export Plug-In . SVG Version: 6.00 Build 0)  -->
<!DOCTYPE svg PUBLIC "-//W3C//DTD SVG 1.1//EN" "http://www.w3.org/Graphics/SVG/1.1/DTD/svg11.dtd">
<svg version="1.1" id="Layer_1" xmlns="http://www.w3.org/2000/svg" xmlns:xlink="http://www.w3.org/1999/xlink" x="0px" y="0px"
	 width="42px" height="45px" viewBox="0 0 42 45" enable-background="new 0 0 42 45" xml:space="preserve">
<g>
	<path fill-rule="evenodd" clip-rule="evenodd" fill="#E74B4B" d="M0,0h39c1.657,0,3,1.343,3,3v39c0,1.657,0,3,0,3H3
		c-1.657,0-3-1.343-3-3V0z"/>
	<path fill="#FFFFFF" d="M17.423,29.247l-1.164,1.155c-1.009,1-2.649,1.001-3.657,0c-0.484-0.481-0.751-1.119-0.751-1.799
		c0-0.679,0.267-1.318,0.751-1.799l4.283-4.25c0.888-0.88,2.558-2.177,3.775-0.969c0.559,0.555,1.461,0.551,2.015-0.007
		c0.555-0.558,0.551-1.461-0.007-2.015c-2.069-2.053-5.127-1.673-7.79,0.969l-4.284,4.25c-1.028,1.02-1.593,2.377-1.593,3.821
		c0,1.444,0.566,2.801,1.594,3.821c1.057,1.049,2.446,1.574,3.836,1.574c1.39,0,2.779-0.524,3.837-1.574l1.164-1.156
		c0.558-0.554,0.561-1.457,0.007-2.015C18.885,28.696,17.982,28.693,17.423,29.247z M30.404,12.739
		c-2.222-2.205-5.329-2.325-7.386-0.283l-1.451,1.44c-0.559,0.554-0.562,1.456-0.007,2.015c0.555,0.559,1.457,0.562,2.015,0.007
		l1.45-1.439c1.066-1.058,2.461-0.619,3.371,0.283c0.485,0.481,0.752,1.12,0.752,1.799c0,0.679-0.267,1.318-0.751,1.799l-4.57,4.533
		c-2.089,2.073-3.07,1.1-3.488,0.685c-0.559-0.555-1.46-0.551-2.015,0.007c-0.555,0.558-0.551,1.461,0.007,2.015
		c0.959,0.952,2.054,1.424,3.202,1.424c1.405,0,2.89-0.708,4.301-2.109l4.57-4.533c1.028-1.02,1.594-2.377,1.594-3.822
		C31.999,15.117,31.433,13.76,30.404,12.739z"/>
</g>
</svg>
