<?xml version="1.0" encoding="utf-8"?>
<!-- Generator: Adobe Illustrator 17.0.0, SVG Export Plug-In . SVG Version: 6.00 Build 0)  -->
<!DOCTYPE svg PUBLIC "-//W3C//DTD SVG 1.1//EN" "http://www.w3.org/Graphics/SVG/1.1/DTD/svg11.dtd">
<svg version="1.1" id="Layer_1" xmlns="http://www.w3.org/2000/svg" xmlns:xlink="http://www.w3.org/1999/xlink" x="0px" y="0px"
	 width="42px" height="45px" viewBox="0 0 42 45" enable-background="new 0 0 42 45" xml:space="preserve">
<g>
	<path fill="#DBAA4D" d="M0,0h39c1.657,0,3,1.343,3,3v39c0,1.657,0,3,0,3H3c-1.657,0-3-1.343-3-3V0z"/>
	<rect x="32.333" y="0" fill="#DBAA4D" width="9.667" height="8.083"/>
	<path fill="#FFFFFF" d="M13.464,33.131c-1.976,0-3.579-1.607-3.579-3.59c0-1.982,1.603-3.59,3.579-3.59
		c1.977,0,3.58,1.608,3.58,3.59S15.441,33.131,13.464,33.131z M22.646,33.131c0-7.069-5.713-12.8-12.761-12.8v-3.746
		c9.11,0,16.496,7.408,16.496,16.546H22.646z M30.116,33.131c0-11.207-9.058-20.293-20.231-20.293V9.092
		c13.236,0,23.966,10.763,23.966,24.039H30.116z"/>
</g>
</svg>
