<?xml version="1.0" encoding="utf-8"?>
<!-- Generator: Adobe Illustrator 17.0.0, SVG Export Plug-In . SVG Version: 6.00 Build 0)  -->
<!DOCTYPE svg PUBLIC "-//W3C//DTD SVG 1.1//EN" "http://www.w3.org/Graphics/SVG/1.1/DTD/svg11.dtd">
<svg version="1.1" id="Layer_1" xmlns="http://www.w3.org/2000/svg" xmlns:xlink="http://www.w3.org/1999/xlink" x="0px" y="0px"
	 width="42px" height="45px" viewBox="0 0 42 45" enable-background="new 0 0 42 45" xml:space="preserve">
<path fill-rule="evenodd" clip-rule="evenodd" fill="#FFFFFF" d="M0,0h39c1.657,0,3,1.343,3,3v39c0,1.657,0,3,0,3H3
	c-1.657,0-3-1.343-3-3V0z"/>
<path fill="#66ABC5" d="M35.003,13.607c-1.031,0.442-2.138,0.74-3.3,0.874c1.187-0.687,2.098-1.775,2.527-3.072
	c-1.111,0.636-2.34,1.098-3.649,1.347c-1.048-1.079-2.542-1.753-4.194-1.753c-3.173,0-5.746,2.486-5.746,5.552
	c0,0.435,0.05,0.859,0.148,1.265c-4.775-0.231-9.01-2.442-11.843-5.801c-0.495,0.82-0.778,1.774-0.778,2.791
	c0,1.926,1.014,3.625,2.556,4.621c-0.941-0.029-1.828-0.278-2.602-0.694c-0.001,0.023-0.001,0.046-0.001,0.069
	c0,2.69,1.981,4.934,4.609,5.444c-0.482,0.127-0.989,0.195-1.514,0.195c-0.37,0-0.73-0.035-1.081-0.1
	c0.731,2.206,2.854,3.811,5.368,3.856c-1.967,1.489-4.444,2.377-7.136,2.377c-0.464,0-0.921-0.027-1.37-0.078
	c2.542,1.576,5.562,2.496,8.808,2.496c10.568,0,16.348-8.461,16.348-15.798c0-0.24-0.005-0.48-0.017-0.718
	C33.259,15.698,34.232,14.72,35.003,13.607z"/>
</svg>
