<?xml version="1.0" encoding="utf-8"?>
<!-- Generator: Adobe Illustrator 17.0.0, SVG Export Plug-In . SVG Version: 6.00 Build 0)  -->
<!DOCTYPE svg PUBLIC "-//W3C//DTD SVG 1.1//EN" "http://www.w3.org/Graphics/SVG/1.1/DTD/svg11.dtd">
<svg version="1.1" id="Layer_1" xmlns="http://www.w3.org/2000/svg" xmlns:xlink="http://www.w3.org/1999/xlink" x="0px" y="0px"
	 width="32px" height="32px" viewBox="0 0 32 32" enable-background="new 0 0 32 32" xml:space="preserve">
<g>
	<g>
		<path fill="#E77878" d="M14.369,18.826L19.263,16l-4.894-2.826V18.826z M16,0C7.163,0,0,7.163,0,16c0,8.837,7.163,16,16,16
			c8.837,0,16-7.163,16-16C32,7.163,24.837,0,16,0z M24.825,18.362l-0.026,0.317c-0.136,1.68-1.193,3.1-2.348,3.154
			c-1.156,0.054-3.069,0.099-4.251,0.099h-4.4c-1.183,0-3.096-0.044-4.251-0.099C8.393,21.779,7.336,20.36,7.2,18.679l-0.026-0.317
			c-0.136-1.68-0.13-4.19,0.013-5.576c0.143-1.387,1.272-2.566,2.509-2.62c1.237-0.054,3.139-0.099,4.227-0.099h4.153
			c1.087,0,2.99,0.044,4.227,0.099c1.237,0.054,2.366,1.233,2.509,2.62C24.955,14.173,24.961,16.682,24.825,18.362z"/>
	</g>
</g>
</svg>
