<?xml version="1.0" encoding="utf-8"?>
<!-- Generator: Adobe Illustrator 17.0.0, SVG Export Plug-In . SVG Version: 6.00 Build 0)  -->
<!DOCTYPE svg PUBLIC "-//W3C//DTD SVG 1.1//EN" "http://www.w3.org/Graphics/SVG/1.1/DTD/svg11.dtd">
<svg version="1.1" id="Layer_1" xmlns="http://www.w3.org/2000/svg" xmlns:xlink="http://www.w3.org/1999/xlink" x="0px" y="0px"
	 width="32px" height="32px" viewBox="0 0 32 32" enable-background="new 0 0 32 32" xml:space="preserve">
<path fill="#DBC59B" d="M16,0C7.163,0,0,7.163,0,16s7.163,16,16,16s16-7.163,16-16S24.837,0,16,0z M12.727,21.094
	c-1.039,0-1.882-0.842-1.882-1.882c0-1.039,0.843-1.882,1.882-1.882c1.04,0,1.882,0.843,1.882,1.882
	C14.609,20.252,13.766,21.094,12.727,21.094z M17.555,21.094c0-3.706-3.004-6.71-6.71-6.71V12.42c4.79,0,8.674,3.884,8.674,8.674
	H17.555z M21.483,21.094c0-5.875-4.763-10.638-10.638-10.638V8.492c6.96,0,12.602,5.642,12.602,12.602H21.483z"/>
</svg>
