<?xml version="1.0" encoding="utf-8"?>
<!-- Generator: Adobe Illustrator 17.0.0, SVG Export Plug-In . SVG Version: 6.00 Build 0)  -->
<!DOCTYPE svg PUBLIC "-//W3C//DTD SVG 1.1//EN" "http://www.w3.org/Graphics/SVG/1.1/DTD/svg11.dtd">
<svg version="1.1" id="Layer_1" xmlns="http://www.w3.org/2000/svg" xmlns:xlink="http://www.w3.org/1999/xlink" x="0px" y="0px"
	 width="32px" height="32px" viewBox="0 0 32 32" enable-background="new 0 0 32 32" xml:space="preserve">
<path fill="#66ABC5" d="M16,0C7.163,0,0,7.163,0,16c0,8.837,7.163,16,16,16c8.837,0,16-7.163,16-16C32,7.163,24.837,0,16,0z
	 M22.507,13.107c0.007,0.135,0.009,0.272,0.009,0.408c0,4.164-3.17,8.966-8.966,8.966c-1.779,0-3.435-0.522-4.83-1.416
	c0.246,0.03,0.497,0.044,0.751,0.044c1.477,0,2.835-0.504,3.914-1.349c-1.379-0.025-2.543-0.936-2.944-2.188
	c0.193,0.036,0.39,0.057,0.593,0.057c0.287,0,0.566-0.039,0.83-0.111c-1.441-0.29-2.528-1.563-2.528-3.09
	c0-0.013,0-0.026,0.001-0.039c0.424,0.236,0.911,0.378,1.427,0.394c-0.846-0.565-1.402-1.53-1.402-2.623
	c0-0.578,0.155-1.118,0.427-1.584c1.554,1.907,3.876,3.161,6.495,3.293c-0.054-0.231-0.081-0.471-0.081-0.718
	c0-1.74,1.411-3.151,3.151-3.151c0.906,0,1.725,0.383,2.3,0.995c0.718-0.141,1.393-0.403,2.001-0.765
	c-0.236,0.736-0.735,1.354-1.385,1.744c0.637-0.076,1.245-0.246,1.81-0.496C23.658,12.108,23.123,12.663,22.507,13.107z"/>
</svg>
