<?xml version="1.0" encoding="utf-8"?>
<!-- Generator: Adobe Illustrator 17.0.0, SVG Export Plug-In . SVG Version: 6.00 Build 0)  -->
<!DOCTYPE svg PUBLIC "-//W3C//DTD SVG 1.1//EN" "http://www.w3.org/Graphics/SVG/1.1/DTD/svg11.dtd">
<svg version="1.1" id="Layer_1" xmlns="http://www.w3.org/2000/svg" xmlns:xlink="http://www.w3.org/1999/xlink" x="0px" y="0px"
	 width="220px" height="71.667px" viewBox="0 0 220 71.667" enable-background="new 0 0 220 71.667" xml:space="preserve">
<g>
	<path fill="#231F20" d="M61.751,61.224c-0.015-0.018-0.226,0.012-0.431,0.052c-0.207,0.04-0.317,0.061-0.332,0.062
		c-0.221,0.011-0.391,0.006-0.579-0.207c-0.011-0.014-0.176-0.186-0.223-0.325c-0.032-0.094-0.075-0.209-0.117-0.341
		c-0.175-0.563-0.34-1.57-0.472-3.307c-0.01-0.134-0.092-0.865-0.215-1.001c-0.408-0.453-1.617,1.217-2.658,2.185L54.333,60.7
		c-0.143,0.132-0.428,0.386-0.733,0.392c-0.679,0.015-0.83-0.269-1.023-0.715c-0.011-0.022-0.037-0.246-0.04-0.299
		c-0.01-0.178-0.007-0.538,0.037-1.077c0.06-0.767,0.101-1.089,0.125-1.605c0.023-0.501,0.007-1.014-0.002-1.359
		c-0.019-0.683-0.453-0.677-0.63-0.697c-0.339-0.037-0.878,0.704-1.559,1.357c-0.212,0.195-0.584,0.729-1.157,1.31
		c-0.193,0.224-0.569,0.634-1.118,1.268c-0.696,0.79-1.203,1.193-1.524,1.209c-0.198,0.01-0.492-0.084-0.747-0.422
		c-0.219-0.298-0.266-0.501-0.268-0.642c-0.007-0.409,0.037-1.063,0.174-1.961c0.184-1.182,0.401-1.76,0.712-1.844
		c0.267-0.072,0.882-0.017,0.747,0.743l-0.266,2.438c0.568-0.072,2.337-2.556,2.954-3.186c1.037-1.055,1.459-1.548,1.984-1.609
		c0.374-0.045,0.741-0.039,1.33,0.389c0.427,0.312,0.671,0.676,0.731,1.082c0.112,0.758,0.124,1.149,0.066,1.8
		c-0.008,0.094-0.034,0.472-0.053,0.598c-0.01,0.067-0.165,1.331-0.019,1.27c0.227-0.094,1.226-1.178,1.612-1.599
		c0.282-0.308,0.553-0.65,1.75-1.812c0.573-0.555,1.047-1.029,1.747-1.065c0.083-0.004,0.386-0.02,0.58,0.034
		c0.209,0.056,0.479,0.106,0.611,0.316c0.207,0.327,0.169,0.391,0.284,1.042c0.059,0.332,0.047,0.507,0.097,0.937
		c0.043,0.371,0.069,0.556,0.126,1.024c0.011,0.089,0.056,0.636,0.138,0.934c0.057,0.208,0.097,0.599,0.226,1.072
		C61.459,60.861,61.6,61.028,61.751,61.224"/>
	<path fill="#231F20" d="M185.196,61.382c-0.016-0.018-0.226,0.014-0.431,0.055c-0.205,0.042-0.315,0.064-0.332,0.065
		c-0.22,0.013-0.389,0.01-0.579-0.2c-0.013-0.014-0.177-0.184-0.227-0.324c-0.034-0.093-0.077-0.207-0.119-0.339
		c-0.181-0.56-0.356-1.568-0.502-3.302c-0.012-0.135-0.101-0.865-0.225-1c-0.411-0.449-1.604,1.231-2.637,2.209l-2.372,2.379
		c-0.141,0.134-0.422,0.389-0.728,0.399c-0.677,0.021-0.833-0.262-1.03-0.706c-0.01-0.022-0.039-0.246-0.042-0.3
		c-0.011-0.178-0.011-0.537,0.027-1.077c0.055-0.768,0.093-1.09,0.113-1.606c0.018-0.501-0.003-1.013-0.015-1.359
		c-0.025-0.683-0.459-0.674-0.636-0.691c-0.34-0.033-0.872,0.712-1.546,1.37c-0.21,0.198-0.578,0.734-1.146,1.321
		c-0.192,0.225-0.564,0.638-1.106,1.277c-0.69,0.796-1.195,1.204-1.514,1.223c-0.198,0.012-0.493-0.08-0.751-0.416
		c-0.222-0.296-0.272-0.498-0.274-0.639c-0.009-0.41,0.029-1.064,0.158-1.964c0.173-1.183,0.385-1.763,0.694-1.85
		c0.268-0.074,0.882-0.025,0.755,0.737l-0.245,2.441c0.566-0.078,2.313-2.578,2.925-3.212c1.029-1.065,1.445-1.56,1.97-1.627
		c0.372-0.047,0.74-0.046,1.332,0.378c0.43,0.308,0.677,0.67,0.741,1.075c0.119,0.757,0.134,1.147,0.081,1.799
		c-0.007,0.095-0.029,0.473-0.046,0.598c-0.01,0.067-0.153,1.333-0.008,1.271c0.226-0.096,1.215-1.189,1.598-1.614
		c0.279-0.309,0.547-0.655,1.734-1.827c0.567-0.561,1.036-1.039,1.737-1.08c0.082-0.005,0.386-0.023,0.58,0.028
		c0.208,0.055,0.479,0.102,0.613,0.31c0.21,0.325,0.172,0.389,0.293,1.039c0.062,0.332,0.051,0.508,0.105,0.936
		c0.047,0.371,0.075,0.556,0.135,1.023c0.012,0.089,0.063,0.636,0.146,0.933c0.06,0.207,0.103,0.599,0.239,1.07
		C184.901,61.022,185.043,61.187,185.196,61.382"/>
	<path fill="#231F20" d="M69.263,59.819c-0.21,0.105-1.713,0.639-2.435,0.823c-1.539,0.392-2.476,0.484-2.766,0.484
		c-0.176,0-0.367-0.025-0.535-0.197c-0.166-0.173-0.106-0.225-0.106-0.389c0-0.08,0.078-0.354,0.378-0.536l0.486-0.155
		c0.111-0.047-0.106-0.584-0.154-0.895c-0.039-0.251-0.078-0.418-0.127-0.711c-0.008-0.05-0.05-0.347-0.068-0.72
		c-0.023-0.48-0.02-0.746-0.02-0.809c0-0.203-0.141-0.427-0.423-0.67c0-0.034-0.232-0.151-0.296-0.371
		c-0.066-0.221-0.016-0.346-0.012-0.362c0.036-0.144,0.485-0.455,1.068-0.811c0.033-0.357,0.073-0.731,0.123-1.036
		c0.334-1.884,0.65-3.508,1.103-4.961c0.113-0.351,0.322-0.897,0.863-0.845c0.253,0.024,0.625,0.006,0.343,1.155
		c-0.073,0.3-0.175,0.664-0.248,1.003c-0.106,0.498-0.175,0.727-0.213,1.013c-0.035,0.26-0.094,0.533-0.214,1.329
		c-0.001,0.012-0.053,0.416-0.102,0.924c-0.038,0.402-0.034,0.761-0.034,0.766c0,0.289,0.389,0.357,0.927,0.357
		c2.042,0,3.649,0.162,4.82,0.484c0.384,0.107,0.862,0.329,1.224,0.765c0.368,0.435,0.447,0.878,0.447,1.229
		c0,0.712-1.189,1.703-2.486,2.512 M66.38,55.439c-0.316,0.073-0.746,0.137-0.915,0.391c-0.044,0.066-0.14,0.19-0.272,0.516
		c-0.133,0.326-0.175,0.873-0.126,1.235c0.011,0.085,0.059,0.471,0.058,0.448c0.056,0.645,0.282,1.521,0.282,1.634l0.38-0.098
		c0.467-0.097,0.95-0.229,1.477-0.382c0.955-0.276,1.96-0.656,2.928-1.114c1.045-0.493,1.783-1.269,1.643-1.69
		c-0.132-0.398-0.597-0.68-1.688-0.878c-0.793-0.141-2.341-0.159-2.993-0.159"/>
	<path fill="#231F20" d="M81.307,55.701c-0.756-0.067-0.963-0.293-0.963-0.876c0-0.198-0.017-0.167,0.054-0.371
		c0.074-0.221,0.226-0.246,0.39-0.246c0.015,0,0.241,0.006,0.502,0.038c0.259,0.03,0.216,0.021,0.236,0.021
		c0.01,0,0.122,0.02,0.315,0.029c0.217,0.012,0.315,0.021,0.33,0.021c0.014,0,0.153,0.013,0.278,0.013h0.293
		c0.025,0,0.221,0.013,0.483,0.009c0.253-0.003,0.413-0.011,0.424-0.011c0.246,0,0.397-0.018,0.505-0.581
		c0.039-0.204,0.164-0.656,0.27-1.164l0.423-1.643c0.063-0.214,0.125-0.576,0.248-0.928c0.109-0.313,0.113-0.439,0.234-0.733
		c0.569-1.387,1.054-2.063,1.447-2.063c0.17,0,0.584-0.201,0.34,0.863c-0.026,0.109-0.064,0.234-0.217,0.635
		c-0.076,0.198-0.18,0.492-0.292,0.91c-0.141,0.526-0.413,1.206-0.686,2.577c-0.077,0.383-0.236,0.885-0.321,1.612
		c-0.06,0.522,0.666,0.448,0.723,0.448l0.426-0.033c0.338-0.03,0.636-0.041,0.764-0.048c0.323-0.019,0.696-0.041,0.931-0.041
		l0.392-0.014c0.596,0,0.83,0.235,0.83,0.546c0,0.198-0.061,0.371-0.214,0.45c-0.151,0.078-0.251,0.117-0.653,0.173
		c-0.344,0.048-0.636,0.111-0.852,0.14c-0.414,0.055-0.827,0.111-0.919,0.121c-0.401,0.042-0.641,0.081-1.422,0.165
		c-0.249,0.028-0.564,0.031-0.625,0.297c-0.07,0.305-0.109,0.797-0.202,1.511c-0.075,0.577-0.215,1.821-0.29,3.118
		c-0.024,0.441-0.295,0.43-0.28,0.43c-0.49,0.027-0.847-0.012-0.972-0.349c-0.035-0.096-0.066-0.344-0.066-0.695
		c0-0.43,0.072-1.757,0.35-3.943c0.031-0.245-0.17-0.277-0.283-0.277c-0.015,0-0.49-0.012-0.504-0.013"/>
	<path fill="#231F20" d="M117.451,60.465c0,0.251-0.074,0.481-0.225,0.69c-0.149,0.209-0.26,0.272-0.435,0.204
		c-0.325-0.125-0.626-0.396-1.784-1.157c-0.703-0.462-1.116-1.106-1.721-1.095c-0.3,0.005-1.011,0.628-1.513,0.918
		c-0.668,0.386-1.172,0.605-1.283,0.647c-0.466,0.153-0.725,0.182-1.185,0.182c-0.585,0-1.371-0.09-2.111-0.975
		c-0.376-0.448-0.48-0.986-0.48-1.313c0-0.439,0.055-0.872,0.459-1.545c0.125-0.209,0.428-0.615,0.678-0.803l0.553-0.428
		c1.504-0.919,2.619-1.34,4.069-1.189c0.336,0.035,0.668,0.104,1.199,0.365c0.161,0.078,0.553,0.376,0.854,0.696
		c0.335,0.355,0.496,0.767,0.376,0.93c-0.146,0.199-0.469,0.397-0.761,0.158c-0.734-0.602-1.231-0.974-1.7-1.033
		c-0.502-0.062-1.444,0.142-2.075,0.334c-1.827,0.553-2.541,2.189-2.222,2.931c0.124,0.292,0.917,0.917,1.763,0.563
		c-0.033,0.014,0.646-0.334,1.022-0.573c0.127-0.081,0.492-0.354,1.054-0.679c1.033-0.594,1.285-0.73,1.732-0.626
		c0.142,0.034,0.729,0.187,1.46,0.929c0.882,0.894,1.638,1.303,2.029,1.547C117.389,60.259,117.451,60.395,117.451,60.465"/>
	<path fill="#231F20" d="M44.463,60.264c0,0.251-0.074,0.481-0.225,0.69c-0.149,0.209-0.26,0.272-0.435,0.204
		c-0.325-0.125-0.626-0.396-1.784-1.157c-0.703-0.462-1.116-1.106-1.721-1.095c-0.3,0.005-1.011,0.628-1.513,0.918
		c-0.668,0.386-1.172,0.605-1.283,0.647c-0.466,0.153-0.725,0.182-1.185,0.182c-0.585,0-1.371-0.09-2.111-0.975
		c-0.376-0.448-0.48-0.986-0.48-1.313c0-0.439,0.055-0.872,0.459-1.545c0.125-0.209,0.428-0.615,0.678-0.803l0.553-0.428
		c1.504-0.919,2.619-1.34,4.069-1.189c0.336,0.035,0.668,0.104,1.199,0.365c0.161,0.078,0.553,0.376,0.854,0.696
		c0.335,0.355,0.496,0.767,0.376,0.93c-0.146,0.199-0.469,0.397-0.761,0.158c-0.734-0.602-1.231-0.974-1.7-1.033
		c-0.502-0.062-1.444,0.142-2.075,0.334c-1.827,0.553-2.541,2.189-2.222,2.931c0.124,0.292,0.917,0.917,1.763,0.563
		c-0.033,0.014,0.646-0.334,1.022-0.573c0.127-0.081,0.492-0.354,1.054-0.679c1.033-0.594,1.285-0.73,1.732-0.626
		c0.142,0.034,0.729,0.187,1.46,0.929c0.882,0.894,1.638,1.303,2.029,1.547C44.401,60.058,44.463,60.194,44.463,60.264"/>
	<path fill="#231F20" d="M138.4,60.465c0,0.251-0.075,0.481-0.225,0.69c-0.151,0.209-0.261,0.272-0.436,0.204
		c-0.324-0.125-0.626-0.396-1.784-1.157c-0.703-0.462-1.116-1.106-1.72-1.095c-0.301,0.005-1.012,0.628-1.514,0.918
		c-0.668,0.386-1.172,0.605-1.283,0.647c-0.466,0.153-0.725,0.182-1.185,0.182c-0.585,0-1.372-0.09-2.111-0.975
		c-0.376-0.448-0.48-0.986-0.48-1.313c0-0.439,0.055-0.872,0.458-1.545c0.125-0.209,0.428-0.615,0.678-0.803l0.553-0.428
		c1.504-0.919,2.619-1.34,4.069-1.189c0.336,0.035,0.668,0.104,1.198,0.365c0.162,0.078,0.555,0.376,0.856,0.696
		c0.334,0.355,0.496,0.767,0.375,0.93c-0.146,0.199-0.47,0.397-0.761,0.158c-0.734-0.602-1.231-0.974-1.7-1.033
		c-0.501-0.062-1.443,0.142-2.075,0.334c-1.827,0.553-2.541,2.189-2.222,2.931c0.125,0.292,0.918,0.917,1.762,0.563
		c-0.032,0.014,0.648-0.334,1.024-0.573c0.126-0.081,0.491-0.354,1.054-0.679c1.033-0.594,1.284-0.73,1.731-0.626
		c0.142,0.034,0.729,0.187,1.461,0.929c0.881,0.894,1.637,1.303,2.027,1.547C138.337,60.259,138.4,60.395,138.4,60.465"/>
	<path fill="#231F20" d="M127.155,55.515c0,0.161-0.063,0.338-0.205,0.511c-0.156,0.189-0.268,0.288-0.953,0.908
		c-0.073,0.065-0.523,0.49-0.607,0.566c-2.887,2.622-4.115,3.987-4.605,3.991c-0.091,0.001-0.383-0.251-0.64-0.591
		c-0.235-0.31-0.46-0.67-0.513-0.768c-0.918-1.644-1.141-2.389-1.724-3.521c-0.028-0.056-0.159-0.359-0.199-0.485
		c-0.073-0.228-0.114-0.392-0.127-0.495c-0.128-0.942,0.422-0.968,0.653-0.897c0.295,0.09,0.479,0.709,1.029,2.021
		c0.51,1.213,1.149,3.17,1.923,2.865c0.207-0.083,0.558-0.501,0.981-0.818c0.479-0.359,0.93-0.855,1.077-0.97
		c0.39-0.305,0.599-0.468,1.156-1.015c0.148-0.144,0.638-0.623,0.926-0.889c0.58-0.538,0.949-1.153,1.469-1.04
		C127.087,54.951,127.155,55.296,127.155,55.515"/>
	<path fill="#231F20" d="M148.606,60.366c0.115,1.479,0.032,1.551-0.392,1.737c-0.029,0.012-0.279,0.065-0.517-0.052
		c-0.278-0.136-0.351-0.34-0.455-0.775c-0.109-0.46-0.176-0.899-0.218-1.757c-0.031-0.639-0.224-1.935-0.733-2.882
		c-0.055-0.102-0.481-0.467-0.729-0.583c-0.17-0.081-0.665-0.186-1.007,0.002c-0.058,0.032-0.339,0.237-0.517,0.423l-0.36,0.496
		c-0.216,0.224-0.718,1.14-1.358,2.028c-0.773,1.076-1.202,1.367-1.578,1.312c-0.461-0.066-0.856-0.293-1.173-0.881
		c-0.27-0.491-0.401-0.948-0.401-1.407c0-0.181-0.007-0.62,0.186-1.409c0.027-0.113,0.101-0.317,0.195-0.483
		c0.078-0.133,0.366-0.774,0.638-0.956c0.011-0.008,0.078-0.092,0.25-0.163c0.131-0.054,0.345-0.04,0.37-0.039
		c0.182,0.012,0.511,0.145,0.457,0.41c-0.225,1.095-1.239,2.595-0.274,2.868c0.416,0.118,1.827-2.933,2.958-3.526
		c0.828-0.433,1.198-0.363,1.23-0.363c0.659,0,1.536,0.168,2.28,1.335c0.146,0.23,0.435,0.662,0.632,1.313
		C148.366,57.937,148.488,58.817,148.606,60.366"/>
	<path fill="#231F20" d="M157.94,59.45c0.046,0.072,0.053,0.127,0.053,0.212c0,0.504,0.001,0.825-0.57,0.825
		c-0.017,0-0.341,0.009-0.414,0.023c-0.076,0.015-0.116,0.015-0.133,0.015c-0.039,0-0.239,0.033-0.551,0.099
		c-0.356,0.076-0.607,0.129-0.669,0.141c-0.939,0.209-1.357,0.3-1.848,0.372c-0.033,0.005-0.197,0.027-0.361,0.05
		c-0.051,0.007-0.11,0.015-0.167,0.015c-0.063,0-0.091,0.006-0.159,0.011c-0.17,0.014-0.277-0.016-0.406-0.016
		c-0.594,0-1.174-0.17-1.739-0.509c-0.578-0.35-1.005-0.724-1.168-1.188c-0.125-0.373-0.133-0.594-0.139-0.594
		c0-0.429,0.088-0.798,0.264-1.103c0.272-0.464,0.668-1.023,1.352-1.555c0.327-0.249,0.855-0.547,1.359-0.768
		c0.996-0.423,1.763-0.561,2.217-0.561c0.017,0,0.124-0.003,0.343-0.007c0.229-0.005,0.437,0.011,0.46,0.011
		c0.52,0,0.741,0.19,0.878,0.313c0.161,0.145,0.263,0.386,0.263,0.776v-0.009c-0.011,0,0,0.291-0.263,0.51
		c-0.094,0.078-0.254,0.102-0.459,0.102c-0.029,0-0.107-0.012-0.238-0.034c-0.141-0.023-0.22-0.034-0.236-0.034
		c-0.713,0-1.159-0.596-3.342,0.787c-0.361,0.229-1.249,1.243-0.956,1.703c0.539,0.844,1.091,0.797,1.844,0.797l0.871-0.065
		c0-0.006,0.225-0.036,0.938-0.094l1.077-0.149c0.018,0,0.354-0.05,0.89-0.135c0.544-0.074,0.556-0.091,0.573-0.091
		C157.719,59.301,157.852,59.314,157.94,59.45"/>
	<path fill="#231F20" d="M167.113,55.918c0.069,0.118,0.332,0.526,0.332,0.774c0,0.141,0.074,0.607,0.064,0.793
		c-0.045,0.554-0.283,0.763-0.483,0.862c-0.254,0.125-0.938,0.153-1.996,0.143l-0.895,0.065l-0.424-0.01
		c-0.285,0-0.737-0.056-1.051,0c-0.079,0.014-0.563-0.009-0.811-0.009c-0.073,0.074-1.402-0.185-1.088,0.277
		c0.089,0.131,0.987,0.977,3.284,1.18c0.238,0.021,0.653,0.092,1.069,0.055c0.704-0.063,0.977-0.203,0.973,0.301
		c-0.001,0.073-0.024,0.298-0.356,0.529c-0.07,0.05-0.275,0.164-0.497,0.249c-0.377,0.144-0.591,0.118-0.591,0.13l-0.156,0.009
		c-0.029,0-0.3-0.007-0.849-0.047l-0.894-0.141c-0.187,0-0.492-0.099-0.917-0.297c-0.09-0.045-0.438-0.116-0.891-0.392
		c-0.434-0.266-0.765-0.478-1.158-0.944c-0.393-0.468-0.584-1.004-0.584-1.389c0-0.476,0.056-0.77,0.175-0.997
		c0.843-1.657,2.52-2.499,5.1-2.499c0.837,0,1.37,0.273,1.854,0.572C166.544,55.273,166.818,55.411,167.113,55.918 M166.108,57.088
		c0.248-0.267-0.074-0.719-0.213-0.82c-0.047-0.035-0.361-0.27-0.673-0.378c-0.452-0.158-1.346-0.35-2.203-0.138
		c-0.184,0.046-0.932,0.305-1.245,0.48c-0.524,0.293-0.931,0.842-0.931,0.95c0,0.101,0.903,0.088,0.966,0.088h2.689
		C165.125,57.269,165.958,57.249,166.108,57.088"/>
	<path fill="#231F20" d="M99.078,54.932c-0.035,0.393-0.07,0.643-0.118,0.849c-0.097,0.413-0.236,0.776-0.374,1.17
		c-0.048,0.137-0.172,0.394-0.209,0.493c-0.087,0.228-0.18,0.386-0.333,0.702l-0.246,0.431c-0.014,0.052-0.244,0.409-0.325,0.517
		c-0.593,0.785-0.984,1.137-1.721,1.608c-0.687,0.439-1.293,0.415-1.63,0.415c-0.212,0-0.507-0.046-0.961-0.188
		c-1.57-0.489-2.312-2.02-2.312-4.243c0-0.762,0.271-1.87,0.545-2l0.175-0.067l0.153-0.035c0.362-0.048,0.433,0.584,0.363,1.23
		c-0.003,0.028,0.016,0.252,0,0.609c-0.016,0.358,0.046,0.855,0.046,0.896c0,1,0.465,1.956,1.196,2.265
		c0.269,0.113,0.373,0.152,0.383,0.154c0.134,0.042,0.521,0.052,0.386,0.052c0.01,0,0.377-0.015,0.476-0.032
		c0.165-0.025,0.476-0.159,0.497-0.17c0.511-0.274,0.84-0.386,1.395-1.186c0.326-0.468,0.676-0.965,1.053-1.946
		c0.318-0.828,0.609-1.424,0.667-1.886c0.013-0.087,0.069-0.38,0.218-0.553c0.156-0.179,0.288-0.142,0.344-0.142
		C98.974,53.88,99.143,54.209,99.078,54.932"/>
	<g>
		<path fill="#231F20" d="M19.391,34.842c-2.4,0-4.476-0.876-6.066-2.465c-2.271-2.271-2.238-4.833-2.238-9.277
			s-0.033-7.007,2.238-9.277c1.589-1.59,3.665-2.465,6.066-2.465c4.249,0,7.428,2.497,8.239,7.104h-3.568
			c-0.552-2.335-2.109-3.957-4.671-3.957c-1.362,0-2.595,0.519-3.406,1.395c-1.135,1.233-1.395,2.562-1.395,7.201
			c0,4.638,0.26,5.968,1.395,7.201c0.811,0.875,2.044,1.395,3.406,1.395c2.563,0,4.152-1.622,4.703-3.957h3.536
			C26.852,32.345,23.576,34.842,19.391,34.842z"/>
		<path fill="#231F20" d="M39.826,34.648v-1.492c-1.2,1.201-2.335,1.687-4.379,1.687c-2.044,0-3.406-0.486-4.411-1.492
			c-0.843-0.875-1.298-2.141-1.298-3.536c0-2.757,1.914-4.736,5.677-4.736h4.347v-1.168c0-2.076-1.038-3.082-3.601-3.082
			c-1.816,0-2.692,0.421-3.601,1.589l-2.173-2.043c1.557-1.816,3.179-2.368,5.904-2.368c4.509,0,6.779,1.914,6.779,5.644v10.996
			H39.826z M39.761,27.382h-3.86c-1.946,0-2.952,0.876-2.952,2.368c0,1.492,0.941,2.336,3.017,2.336c1.265,0,2.206-0.097,3.082-0.94
			c0.487-0.486,0.714-1.265,0.714-2.433V27.382z"/>
		<path fill="#231F20" d="M52.119,34.648c-3.082,0-4.509-2.206-4.509-4.574v-9.05h-1.881v-2.53h1.881v-4.996h3.309v4.996h3.179v2.53
			h-3.179v8.888c0,1.201,0.584,1.914,1.816,1.914h1.363v2.822H52.119z"/>
		<path fill="#231F20" d="M66.066,34.648v-1.492c-1.2,1.201-2.335,1.687-4.379,1.687c-2.044,0-3.406-0.486-4.411-1.492
			c-0.843-0.875-1.298-2.141-1.298-3.536c0-2.757,1.914-4.736,5.677-4.736h4.347v-1.168c0-2.076-1.038-3.082-3.601-3.082
			c-1.816,0-2.692,0.421-3.601,1.589l-2.173-2.043c1.557-1.816,3.179-2.368,5.904-2.368c4.509,0,6.779,1.914,6.779,5.644v10.996
			H66.066z M66.001,27.382h-3.86c-1.946,0-2.952,0.876-2.952,2.368c0,1.492,0.941,2.336,3.017,2.336c1.265,0,2.206-0.097,3.082-0.94
			c0.487-0.486,0.714-1.265,0.714-2.433V27.382z"/>
		<path fill="#231F20" d="M77.84,34.648c-3.147,0-4.509-2.109-4.509-4.542V11.552h3.309v18.36c0,1.265,0.454,1.914,1.784,1.914h1.46
			v2.822H77.84z"/>
		<path fill="#231F20" d="M92.501,34.648v-1.655c-1.135,1.233-2.725,1.849-4.379,1.849c-1.687,0-3.082-0.551-4.055-1.492
			c-1.265-1.232-1.654-2.79-1.654-4.638v-10.51h3.309v10.023c0,2.562,1.46,3.665,3.309,3.665c1.849,0,3.406-1.135,3.406-3.665
			V18.202h3.309v16.446H92.501z"/>
		<path fill="#231F20" d="M110.048,34.648V24.625c0-2.563-1.46-3.666-3.309-3.666c-1.849,0-3.406,1.136-3.406,3.666v10.023h-3.309
			V18.202h3.244v1.654c1.135-1.233,2.725-1.849,4.379-1.849c1.687,0,3.082,0.552,4.055,1.492c1.266,1.233,1.655,2.79,1.655,4.638
			v10.51H110.048z"/>
		<path fill="#231F20" d="M122.665,37.924c-0.324,0.908-0.714,1.557-1.2,2.044c-0.908,0.908-2.108,1.2-3.373,1.2h-1.33v-2.984h0.843
			c1.395,0,1.881-0.422,2.368-1.751l0.908-2.563l-5.741-15.667h3.503l3.925,11.58l3.828-11.58h3.536L122.665,37.924z"/>
		<path fill="#231F20" d="M140.278,34.648v-1.492c-1.2,1.201-2.336,1.687-4.379,1.687c-2.044,0-3.406-0.486-4.412-1.492
			c-0.844-0.875-1.298-2.141-1.298-3.536c0-2.757,1.914-4.736,5.677-4.736h4.347v-1.168c0-2.076-1.038-3.082-3.6-3.082
			c-1.817,0-2.692,0.421-3.601,1.589l-2.173-2.043c1.557-1.816,3.179-2.368,5.903-2.368c4.509,0,6.779,1.914,6.779,5.644v10.996
			H140.278z M140.213,27.382h-3.86c-1.946,0-2.952,0.876-2.952,2.368c0,1.492,0.94,2.336,3.017,2.336
			c1.265,0,2.206-0.097,3.082-0.94c0.486-0.486,0.713-1.265,0.713-2.433V27.382z"/>
	</g>
	<g>
		<path fill="#231F20" d="M170.737,34.648V21.186l-4.412,8.758h-3.049l-4.444-8.758v13.462h-4.509V11.552h4.444l6.033,12.488
			l6.001-12.488h4.444v23.096H170.737z"/>
		<path fill="#231F20" d="M182.672,27.512c0,2.173,1.33,3.762,3.698,3.762c1.849,0,2.757-0.519,3.827-1.589l2.563,2.497
			c-1.719,1.719-3.374,2.66-6.423,2.66c-3.99,0-7.818-1.816-7.818-8.661c0-5.514,2.984-8.629,7.363-8.629
			c4.704,0,7.364,3.438,7.364,8.077v1.881H182.672z M188.705,22.808c-0.454-1.006-1.395-1.752-2.822-1.752
			c-1.427,0-2.368,0.746-2.822,1.752c-0.26,0.616-0.357,1.07-0.389,1.816h6.423C189.062,23.878,188.965,23.424,188.705,22.808z
			 M187.018,15.055h-2.822l2.076-5.514h4.444L187.018,15.055z"/>
		<path fill="#231F20" d="M201.744,34.842c-2.66,0-5.06-0.292-7.201-2.433l2.757-2.757c1.395,1.395,3.212,1.59,4.509,1.59
			c1.46,0,2.984-0.486,2.984-1.751c0-0.844-0.454-1.427-1.784-1.557l-2.66-0.26c-3.049-0.292-4.93-1.621-4.93-4.736
			c0-3.503,3.082-5.385,6.52-5.385c2.627,0,4.833,0.454,6.455,1.979l-2.595,2.627c-0.973-0.875-2.466-1.135-3.925-1.135
			c-1.687,0-2.4,0.778-2.4,1.622c0,0.616,0.259,1.33,1.751,1.46l2.66,0.26c3.341,0.324,5.028,2.108,5.028,4.963
			C208.913,33.058,205.734,34.842,201.744,34.842z"/>
	</g>
</g>
</svg>
