<?xml version="1.0" encoding="utf-8"?>
<!-- Generator: Adobe Illustrator 17.0.0, SVG Export Plug-In . SVG Version: 6.00 Build 0)  -->
<!DOCTYPE svg PUBLIC "-//W3C//DTD SVG 1.1//EN" "http://www.w3.org/Graphics/SVG/1.1/DTD/svg11.dtd">
<svg version="1.1" id="Layer_1" xmlns="http://www.w3.org/2000/svg" xmlns:xlink="http://www.w3.org/1999/xlink" x="0px" y="0px"
	 width="280px" height="80px" viewBox="0 0 280 80" enable-background="new 0 0 280 80" xml:space="preserve">
<g>
	<path fill="#231F20" d="M72.143,73.575c-0.02-0.025-0.317,0.016-0.605,0.073c-0.29,0.056-0.445,0.085-0.467,0.086
		c-0.311,0.015-0.549,0.008-0.813-0.29c-0.015-0.019-0.247-0.261-0.313-0.456c-0.045-0.132-0.105-0.293-0.164-0.479
		c-0.246-0.79-0.478-2.205-0.662-4.644c-0.013-0.188-0.129-1.215-0.302-1.406c-0.574-0.636-2.27,1.709-3.732,3.069l-3.357,3.311
		c-0.201,0.186-0.602,0.543-1.029,0.55c-0.953,0.021-1.166-0.377-1.437-1.004c-0.015-0.03-0.052-0.345-0.056-0.42
		c-0.013-0.25-0.009-0.755,0.052-1.512c0.084-1.078,0.142-1.529,0.175-2.253c0.032-0.703,0.01-1.423-0.003-1.908
		c-0.026-0.959-0.635-0.951-0.884-0.978c-0.477-0.051-1.234,0.989-2.189,1.906c-0.297,0.273-0.82,1.024-1.625,1.839
		c-0.271,0.315-0.798,0.891-1.57,1.78c-0.978,1.11-1.69,1.676-2.14,1.698c-0.278,0.014-0.691-0.118-1.049-0.593
		c-0.308-0.419-0.374-0.703-0.376-0.902c-0.01-0.575,0.052-1.492,0.245-2.753c0.258-1.66,0.564-2.472,1-2.589
		c0.375-0.101,1.238-0.024,1.049,1.044l-0.374,3.424c0.797-0.101,3.281-3.59,4.148-4.474c1.456-1.482,2.049-2.173,2.786-2.259
		c0.525-0.063,1.04-0.055,1.868,0.546c0.6,0.438,0.942,0.95,1.027,1.52c0.157,1.065,0.174,1.613,0.092,2.528
		c-0.011,0.132-0.048,0.663-0.075,0.84c-0.013,0.093-0.231,1.87-0.026,1.783c0.318-0.131,1.721-1.654,2.264-2.245
		c0.396-0.432,0.777-0.913,2.457-2.544c0.804-0.779,1.47-1.445,2.454-1.495c0.117-0.005,0.543-0.027,0.814,0.047
		c0.293,0.078,0.673,0.149,0.858,0.444c0.29,0.459,0.237,0.549,0.399,1.463c0.083,0.467,0.065,0.712,0.136,1.315
		c0.06,0.521,0.097,0.781,0.176,1.438c0.015,0.125,0.079,0.893,0.193,1.312c0.079,0.292,0.136,0.841,0.318,1.505
		C71.733,73.066,71.931,73.299,72.143,73.575"/>
	<path fill="#231F20" d="M245.489,73.797c-0.022-0.025-0.317,0.019-0.605,0.077c-0.288,0.059-0.442,0.089-0.467,0.091
		c-0.309,0.018-0.547,0.014-0.813-0.281c-0.018-0.019-0.248-0.259-0.318-0.455c-0.048-0.131-0.108-0.291-0.167-0.476
		c-0.254-0.787-0.5-2.201-0.704-4.637c-0.016-0.189-0.141-1.215-0.316-1.404c-0.578-0.631-2.253,1.729-3.703,3.102l-3.33,3.341
		c-0.198,0.188-0.593,0.546-1.023,0.56c-0.95,0.029-1.17-0.368-1.446-0.992c-0.013-0.031-0.055-0.346-0.059-0.421
		c-0.015-0.25-0.015-0.754,0.037-1.512c0.077-1.078,0.13-1.53,0.158-2.255c0.025-0.704-0.004-1.423-0.021-1.908
		c-0.034-0.959-0.645-0.946-0.893-0.97c-0.478-0.046-1.224,1-2.171,1.924c-0.295,0.278-0.811,1.031-1.609,1.856
		c-0.269,0.316-0.792,0.895-1.553,1.793c-0.969,1.118-1.678,1.69-2.126,1.717c-0.278,0.016-0.692-0.112-1.054-0.584
		c-0.311-0.415-0.382-0.699-0.385-0.897c-0.013-0.576,0.041-1.494,0.222-2.757c0.243-1.661,0.541-2.476,0.975-2.597
		c0.376-0.104,1.239-0.035,1.06,1.035l-0.344,3.427c0.795-0.11,3.248-3.62,4.108-4.51c1.444-1.496,2.029-2.191,2.767-2.285
		c0.523-0.066,1.039-0.064,1.871,0.531c0.604,0.432,0.951,0.94,1.04,1.51c0.167,1.063,0.188,1.611,0.114,2.526
		c-0.009,0.133-0.041,0.664-0.065,0.84c-0.013,0.093-0.215,1.872-0.011,1.785c0.317-0.135,1.707-1.67,2.244-2.267
		c0.392-0.434,0.768-0.919,2.436-2.565c0.796-0.787,1.455-1.458,2.44-1.517c0.115-0.006,0.542-0.032,0.814,0.039
		c0.292,0.077,0.673,0.143,0.861,0.436c0.295,0.456,0.241,0.546,0.411,1.459c0.086,0.467,0.072,0.713,0.147,1.314
		c0.066,0.521,0.105,0.781,0.19,1.437c0.016,0.125,0.088,0.893,0.205,1.31c0.084,0.291,0.144,0.841,0.335,1.502
		C245.074,73.291,245.275,73.523,245.489,73.797"/>
	<path fill="#231F20" d="M82.692,71.602c-0.295,0.148-2.405,0.898-3.419,1.156c-2.161,0.551-3.477,0.679-3.883,0.679
		c-0.247,0-0.516-0.034-0.751-0.277c-0.233-0.242-0.148-0.316-0.148-0.546c0-0.112,0.11-0.498,0.531-0.752l0.682-0.218
		c0.155-0.066-0.148-0.82-0.216-1.257c-0.055-0.352-0.11-0.588-0.179-0.998c-0.011-0.07-0.07-0.487-0.095-1.011
		c-0.032-0.673-0.027-1.048-0.027-1.136c0-0.285-0.197-0.6-0.595-0.941c0-0.047-0.325-0.212-0.415-0.521
		c-0.092-0.31-0.022-0.486-0.017-0.509c0.051-0.202,0.681-0.639,1.499-1.139c0.046-0.501,0.103-1.026,0.173-1.455
		c0.47-2.645,0.913-4.926,1.548-6.967c0.158-0.493,0.452-1.26,1.212-1.187c0.356,0.034,0.877,0.008,0.481,1.622
		c-0.103,0.421-0.245,0.933-0.349,1.408c-0.148,0.699-0.245,1.021-0.299,1.423c-0.049,0.366-0.131,0.749-0.3,1.867
		c-0.001,0.017-0.075,0.585-0.143,1.297c-0.053,0.565-0.047,1.068-0.047,1.075c0,0.406,0.546,0.501,1.302,0.501
		c2.868,0,5.123,0.227,6.768,0.68c0.539,0.15,1.21,0.462,1.719,1.074c0.517,0.612,0.628,1.233,0.628,1.726
		c0,1-1.67,2.392-3.491,3.527 M78.644,65.451C78.2,65.553,77.596,65.644,77.359,66c-0.062,0.093-0.196,0.266-0.382,0.725
		c-0.187,0.458-0.246,1.227-0.177,1.735c0.015,0.119,0.082,0.661,0.081,0.629c0.079,0.906,0.396,2.136,0.396,2.295l0.533-0.137
		c0.655-0.136,1.333-0.321,2.074-0.536c1.341-0.388,2.753-0.921,4.111-1.565c1.468-0.692,2.504-1.782,2.308-2.373
		c-0.185-0.559-0.839-0.955-2.371-1.234c-1.113-0.198-3.287-0.224-4.203-0.224"/>
	<path fill="#231F20" d="M99.605,65.819c-1.061-0.093-1.352-0.412-1.352-1.23c0-0.278-0.023-0.234,0.076-0.521
		c0.104-0.311,0.317-0.345,0.548-0.345c0.02,0,0.339,0.008,0.704,0.053c0.363,0.042,0.303,0.029,0.331,0.029
		c0.013,0,0.172,0.027,0.443,0.041c0.305,0.016,0.442,0.029,0.463,0.029c0.019,0,0.215,0.018,0.391,0.018h0.412
		c0.034,0,0.311,0.018,0.678,0.013c0.356-0.005,0.581-0.015,0.596-0.015c0.346,0,0.557-0.025,0.709-0.816
		c0.054-0.286,0.23-0.921,0.38-1.635l0.594-2.308c0.088-0.301,0.176-0.809,0.349-1.302c0.153-0.439,0.158-0.617,0.328-1.03
		c0.799-1.947,1.48-2.897,2.032-2.897c0.239,0,0.82-0.282,0.477,1.212c-0.037,0.153-0.089,0.329-0.304,0.892
		c-0.106,0.278-0.253,0.69-0.41,1.279c-0.198,0.739-0.581,1.694-0.964,3.619c-0.108,0.538-0.331,1.243-0.451,2.263
		c-0.084,0.733,0.935,0.63,1.016,0.63l0.599-0.046c0.475-0.041,0.893-0.057,1.073-0.067c0.453-0.026,0.978-0.058,1.307-0.058
		l0.55-0.019c0.837,0,1.165,0.33,1.165,0.767c0,0.278-0.085,0.521-0.301,0.632c-0.212,0.109-0.353,0.164-0.917,0.243
		c-0.484,0.067-0.893,0.155-1.197,0.197c-0.581,0.077-1.162,0.156-1.291,0.17c-0.563,0.059-0.9,0.113-1.996,0.232
		c-0.35,0.039-0.792,0.043-0.877,0.417c-0.098,0.428-0.153,1.119-0.283,2.122c-0.105,0.81-0.302,2.557-0.408,4.379
		c-0.034,0.62-0.415,0.604-0.394,0.604c-0.688,0.038-1.189-0.016-1.365-0.49c-0.049-0.134-0.093-0.484-0.093-0.976
		c0-0.604,0.101-2.467,0.491-5.537c0.044-0.344-0.239-0.389-0.397-0.389c-0.02,0-0.687-0.017-0.708-0.018"/>
	<path fill="#231F20" d="M150.359,72.509c0,0.353-0.104,0.675-0.316,0.969c-0.209,0.293-0.366,0.382-0.611,0.286
		c-0.456-0.175-0.879-0.556-2.506-1.625c-0.987-0.649-1.567-1.553-2.417-1.538c-0.422,0.007-1.42,0.881-2.124,1.288
		c-0.938,0.543-1.646,0.85-1.802,0.908c-0.654,0.215-1.018,0.255-1.664,0.255c-0.821,0-1.925-0.127-2.964-1.369
		c-0.529-0.63-0.674-1.384-0.674-1.844c0-0.616,0.077-1.224,0.644-2.17c0.176-0.293,0.601-0.864,0.952-1.127l0.776-0.601
		c2.111-1.291,3.678-1.882,5.714-1.669c0.472,0.049,0.938,0.146,1.684,0.512c0.226,0.11,0.776,0.528,1.2,0.977
		c0.471,0.498,0.696,1.078,0.529,1.306c-0.205,0.28-0.659,0.558-1.069,0.221c-1.031-0.846-1.728-1.368-2.388-1.45
		c-0.704-0.087-2.028,0.2-2.914,0.469c-2.565,0.776-3.568,3.074-3.121,4.116c0.174,0.41,1.288,1.288,2.476,0.791
		c-0.046,0.02,0.907-0.469,1.435-0.805c0.179-0.113,0.69-0.498,1.48-0.953c1.45-0.834,1.804-1.025,2.433-0.879
		c0.199,0.047,1.024,0.262,2.05,1.305c1.238,1.255,2.3,1.83,2.849,2.172C150.272,72.22,150.359,72.411,150.359,72.509"/>
	<path fill="#231F20" d="M47.867,72.226c0,0.353-0.104,0.675-0.316,0.969c-0.209,0.293-0.366,0.382-0.611,0.286
		c-0.456-0.175-0.879-0.556-2.506-1.625c-0.987-0.649-1.567-1.553-2.417-1.538c-0.422,0.007-1.42,0.881-2.124,1.288
		c-0.938,0.543-1.646,0.85-1.802,0.908c-0.654,0.215-1.018,0.255-1.664,0.255c-0.821,0-1.925-0.127-2.964-1.369
		c-0.529-0.63-0.674-1.384-0.674-1.844c0-0.616,0.077-1.224,0.644-2.17c0.176-0.293,0.601-0.864,0.952-1.127l0.776-0.601
		c2.111-1.291,3.678-1.882,5.714-1.669c0.472,0.049,0.938,0.145,1.684,0.512c0.226,0.11,0.776,0.528,1.2,0.977
		c0.471,0.498,0.696,1.078,0.529,1.306c-0.205,0.28-0.659,0.558-1.069,0.221c-1.031-0.846-1.728-1.368-2.388-1.45
		c-0.704-0.087-2.028,0.2-2.914,0.469c-2.565,0.776-3.568,3.074-3.121,4.116c0.174,0.41,1.288,1.288,2.476,0.791
		c-0.046,0.02,0.907-0.469,1.435-0.805c0.179-0.113,0.69-0.498,1.48-0.953c1.45-0.834,1.804-1.025,2.433-0.879
		c0.199,0.047,1.024,0.262,2.05,1.305c1.239,1.255,2.3,1.83,2.849,2.172C47.78,71.938,47.867,72.129,47.867,72.226"/>
	<path fill="#231F20" d="M179.776,72.509c0,0.353-0.105,0.675-0.316,0.969c-0.212,0.293-0.367,0.382-0.612,0.286
		c-0.455-0.175-0.879-0.556-2.506-1.625c-0.987-0.649-1.567-1.553-2.416-1.538c-0.423,0.007-1.421,0.881-2.126,1.288
		c-0.938,0.543-1.646,0.85-1.802,0.908c-0.654,0.215-1.018,0.255-1.664,0.255c-0.821,0-1.927-0.127-2.964-1.369
		c-0.529-0.63-0.674-1.384-0.674-1.844c0-0.616,0.077-1.224,0.644-2.17c0.176-0.293,0.601-0.864,0.952-1.127l0.776-0.601
		c2.111-1.291,3.678-1.882,5.714-1.669c0.472,0.049,0.938,0.146,1.683,0.512c0.227,0.11,0.779,0.528,1.203,0.977
		c0.47,0.498,0.696,1.078,0.527,1.306c-0.205,0.28-0.66,0.558-1.069,0.221c-1.031-0.846-1.728-1.368-2.388-1.45
		c-0.703-0.087-2.026,0.2-2.914,0.469c-2.565,0.776-3.568,3.074-3.121,4.116c0.176,0.41,1.289,1.288,2.474,0.791
		c-0.044,0.02,0.91-0.469,1.437-0.805c0.177-0.113,0.689-0.498,1.48-0.953c1.45-0.834,1.803-1.025,2.431-0.879
		c0.199,0.047,1.024,0.262,2.051,1.305c1.237,1.255,2.298,1.83,2.846,2.172C179.688,72.22,179.776,72.411,179.776,72.509"/>
	<path fill="#231F20" d="M163.986,65.558c0,0.226-0.088,0.474-0.288,0.718c-0.219,0.265-0.376,0.405-1.338,1.275
		c-0.102,0.091-0.735,0.687-0.853,0.794c-4.054,3.682-5.778,5.599-6.467,5.604c-0.127,0.001-0.538-0.352-0.899-0.83
		c-0.33-0.436-0.645-0.941-0.72-1.079c-1.289-2.308-1.603-3.355-2.421-4.944c-0.039-0.078-0.224-0.504-0.28-0.68
		c-0.102-0.321-0.16-0.551-0.179-0.694c-0.18-1.323,0.593-1.359,0.917-1.26c0.415,0.127,0.673,0.995,1.445,2.838
		c0.716,1.703,1.613,4.451,2.701,4.023c0.291-0.117,0.784-0.704,1.377-1.149c0.673-0.504,1.306-1.201,1.513-1.361
		c0.548-0.429,0.841-0.657,1.623-1.425c0.207-0.202,0.896-0.874,1.3-1.249c0.814-0.755,1.333-1.619,2.063-1.461
		C163.891,64.766,163.986,65.251,163.986,65.558"/>
	<path fill="#231F20" d="M194.108,72.371c0.161,2.076,0.044,2.178-0.55,2.439c-0.04,0.017-0.392,0.091-0.726-0.073
		c-0.39-0.19-0.493-0.478-0.639-1.088c-0.153-0.646-0.247-1.263-0.306-2.467c-0.043-0.897-0.314-2.717-1.03-4.047
		c-0.077-0.143-0.675-0.656-1.024-0.818c-0.239-0.113-0.933-0.261-1.414,0.003c-0.081,0.045-0.476,0.333-0.726,0.595l-0.505,0.697
		c-0.303,0.315-1.009,1.6-1.907,2.848c-1.086,1.51-1.688,1.92-2.216,1.843c-0.647-0.092-1.203-0.412-1.648-1.238
		c-0.379-0.69-0.564-1.331-0.564-1.975c0-0.254-0.01-0.87,0.261-1.978c0.038-0.159,0.141-0.445,0.274-0.678
		c0.109-0.187,0.514-1.087,0.895-1.343c0.015-0.011,0.11-0.129,0.351-0.229c0.183-0.076,0.484-0.056,0.52-0.054
		c0.255,0.017,0.718,0.204,0.642,0.576c-0.316,1.538-1.74,3.644-0.384,4.028c0.585,0.165,2.565-4.119,4.154-4.951
		c1.163-0.609,1.682-0.51,1.727-0.51c0.926,0,2.157,0.235,3.202,1.875c0.205,0.323,0.611,0.93,0.887,1.844
		C193.772,68.959,193.942,70.194,194.108,72.371"/>
	<path fill="#231F20" d="M207.215,71.084c0.065,0.101,0.074,0.178,0.074,0.297c0,0.707,0.001,1.159-0.8,1.159
		c-0.023,0-0.479,0.012-0.582,0.032c-0.106,0.021-0.162,0.021-0.187,0.021c-0.055,0-0.336,0.046-0.773,0.139
		c-0.5,0.107-0.852,0.181-0.939,0.198c-1.318,0.294-1.906,0.422-2.594,0.523c-0.046,0.007-0.277,0.038-0.507,0.07
		c-0.071,0.01-0.155,0.021-0.235,0.021c-0.088,0-0.127,0.008-0.224,0.015c-0.239,0.02-0.389-0.022-0.571-0.022
		c-0.834,0-1.649-0.238-2.443-0.715c-0.811-0.492-1.411-1.017-1.641-1.668c-0.176-0.524-0.187-0.834-0.195-0.834
		c0-0.603,0.123-1.121,0.37-1.548c0.382-0.652,0.938-1.436,1.898-2.183c0.46-0.349,1.201-0.768,1.908-1.079
		c1.399-0.595,2.476-0.788,3.114-0.788c0.023,0,0.174-0.005,0.481-0.009c0.321-0.006,0.614,0.015,0.645,0.015
		c0.73,0,1.041,0.267,1.233,0.439c0.226,0.203,0.369,0.542,0.369,1.09v-0.013c-0.015,0,0,0.409-0.369,0.716
		c-0.131,0.11-0.357,0.143-0.644,0.143c-0.04,0-0.15-0.017-0.334-0.048c-0.198-0.032-0.309-0.048-0.332-0.048
		c-1.001,0-1.627-0.837-4.692,1.105c-0.507,0.322-1.754,1.746-1.343,2.391c0.756,1.186,1.532,1.12,2.589,1.12l1.224-0.091
		c0-0.008,0.316-0.05,1.316-0.132l1.513-0.209c0.025,0,0.497-0.07,1.25-0.189c0.763-0.103,0.78-0.128,0.805-0.128
		C206.905,70.874,207.092,70.893,207.215,71.084"/>
	<path fill="#231F20" d="M220.096,66.123c0.097,0.165,0.467,0.739,0.467,1.087c0,0.198,0.104,0.852,0.089,1.114
		c-0.063,0.778-0.397,1.071-0.678,1.21c-0.357,0.175-1.316,0.214-2.803,0.201l-1.257,0.091l-0.596-0.013
		c-0.401,0-1.035-0.078-1.476,0c-0.111,0.019-0.791-0.013-1.139-0.013c-0.103,0.103-1.969-0.259-1.528,0.389
		c0.125,0.184,1.385,1.371,4.612,1.657c0.334,0.029,0.917,0.129,1.501,0.077c0.988-0.088,1.371-0.285,1.366,0.422
		c-0.001,0.103-0.033,0.419-0.5,0.743c-0.098,0.07-0.386,0.23-0.697,0.349c-0.53,0.202-0.829,0.166-0.829,0.182l-0.219,0.013
		c-0.04,0-0.422-0.01-1.192-0.065l-1.256-0.198c-0.262,0-0.69-0.139-1.288-0.417c-0.126-0.063-0.615-0.162-1.25-0.55
		c-0.609-0.374-1.075-0.671-1.626-1.326c-0.552-0.657-0.82-1.41-0.82-1.95c0-0.668,0.078-1.081,0.245-1.399
		c1.184-2.327,3.539-3.509,7.161-3.509c1.175,0,1.923,0.384,2.603,0.803C219.297,65.218,219.681,65.411,220.096,66.123
		 M218.685,67.767c0.349-0.375-0.104-1.009-0.299-1.152c-0.066-0.049-0.507-0.379-0.945-0.531c-0.634-0.221-1.89-0.491-3.094-0.194
		c-0.258,0.064-1.308,0.428-1.749,0.674c-0.736,0.412-1.307,1.183-1.307,1.334c0,0.142,1.269,0.123,1.357,0.123h3.777
		C217.305,68.021,218.475,67.992,218.685,67.767"/>
	<path fill="#231F20" d="M124.559,64.74c-0.049,0.552-0.098,0.903-0.166,1.193c-0.136,0.58-0.331,1.09-0.526,1.643
		c-0.067,0.193-0.242,0.554-0.294,0.692c-0.122,0.32-0.253,0.542-0.468,0.985l-0.345,0.605c-0.019,0.073-0.343,0.574-0.457,0.725
		c-0.832,1.103-1.381,1.596-2.417,2.258c-0.965,0.616-1.816,0.583-2.289,0.583c-0.298,0-0.711-0.065-1.35-0.264
		c-2.205-0.687-3.247-2.837-3.247-5.958c0-1.071,0.38-2.625,0.765-2.808l0.246-0.093l0.214-0.049c0.509-0.067,0.608,0.82,0.51,1.728
		c-0.004,0.039,0.022,0.354,0,0.855c-0.022,0.503,0.065,1.201,0.065,1.258c0,1.404,0.652,2.746,1.679,3.181
		c0.377,0.158,0.524,0.214,0.538,0.217c0.188,0.058,0.732,0.073,0.543,0.073c0.013,0,0.53-0.02,0.668-0.044
		c0.232-0.035,0.668-0.224,0.697-0.238c0.717-0.384,1.179-0.543,1.959-1.665c0.458-0.657,0.949-1.355,1.479-2.732
		c0.446-1.163,0.855-1.999,0.936-2.648c0.018-0.122,0.096-0.533,0.306-0.777c0.219-0.252,0.404-0.199,0.484-0.199
		C124.414,63.261,124.651,63.724,124.559,64.74"/>
	<g>
		<path fill="#231F20" d="M12.661,36.529c-3.371,0-6.286-1.23-8.518-3.462C0.954,29.878,1,26.28,1,20.04S0.954,10.201,4.143,7.012
			C6.375,4.78,9.29,3.551,12.661,3.551c5.967,0,10.431,3.507,11.57,9.975h-5.01c-0.775-3.279-2.961-5.557-6.559-5.557
			c-1.913,0-3.644,0.728-4.783,1.958C6.284,11.659,5.92,13.526,5.92,20.04c0,6.513,0.364,8.381,1.959,10.112
			c1.139,1.229,2.87,1.958,4.783,1.958c3.599,0,5.83-2.278,6.605-5.557h4.965C23.137,33.021,18.537,36.529,12.661,36.529z"/>
		<path fill="#231F20" d="M41.355,36.256V34.16c-1.685,1.686-3.279,2.369-6.149,2.369c-2.87,0-4.783-0.683-6.195-2.096
			c-1.184-1.229-1.822-3.006-1.822-4.965c0-3.871,2.687-6.65,7.971-6.65h6.104v-1.64c0-2.915-1.458-4.327-5.056-4.327
			c-2.551,0-3.78,0.592-5.056,2.232L28.1,16.214c2.187-2.551,4.464-3.326,8.29-3.326c6.331,0,9.52,2.688,9.52,7.926v15.442H41.355z
			 M41.264,26.052h-5.421c-2.733,0-4.145,1.23-4.145,3.325c0,2.096,1.321,3.28,4.236,3.28c1.776,0,3.097-0.137,4.327-1.321
			c0.683-0.683,1.002-1.776,1.002-3.416V26.052z"/>
		<path fill="#231F20" d="M58.617,36.256c-4.328,0-6.331-3.098-6.331-6.423V17.125h-2.642v-3.553h2.642V6.557h4.646v7.015h4.464
			v3.553h-4.464v12.48c0,1.686,0.82,2.687,2.551,2.687h1.913v3.963H58.617z"/>
		<path fill="#231F20" d="M78.203,36.256V34.16c-1.685,1.686-3.279,2.369-6.149,2.369c-2.87,0-4.783-0.683-6.195-2.096
			c-1.184-1.229-1.822-3.006-1.822-4.965c0-3.871,2.687-6.65,7.971-6.65h6.104v-1.64c0-2.915-1.458-4.327-5.056-4.327
			c-2.551,0-3.78,0.592-5.056,2.232l-3.052-2.869c2.187-2.551,4.464-3.326,8.29-3.326c6.331,0,9.52,2.688,9.52,7.926v15.442H78.203z
			 M78.112,26.052h-5.421c-2.733,0-4.145,1.23-4.145,3.325c0,2.096,1.321,3.28,4.236,3.28c1.776,0,3.097-0.137,4.327-1.321
			c0.683-0.683,1.002-1.776,1.002-3.416V26.052z"/>
		<path fill="#231F20" d="M94.736,36.256c-4.418,0-6.331-2.961-6.331-6.377V3.824h4.646v25.781c0,1.776,0.638,2.687,2.505,2.687
			h2.05v3.963H94.736z"/>
		<path fill="#231F20" d="M115.323,36.256v-2.324c-1.594,1.731-3.826,2.597-6.149,2.597c-2.368,0-4.327-0.774-5.694-2.096
			c-1.776-1.73-2.323-3.917-2.323-6.513V13.162h4.646v14.075c0,3.598,2.05,5.147,4.646,5.147s4.783-1.594,4.783-5.147V13.162h4.646
			v23.094H115.323z"/>
		<path fill="#231F20" d="M139.964,36.256V22.181c0-3.599-2.05-5.147-4.646-5.147s-4.783,1.595-4.783,5.147v14.075h-4.646V13.162
			h4.555v2.323c1.594-1.731,3.826-2.597,6.149-2.597c2.368,0,4.327,0.775,5.693,2.096c1.777,1.731,2.324,3.917,2.324,6.513v14.759
			H139.964z"/>
		<path fill="#231F20" d="M157.681,40.856c-0.455,1.275-1.002,2.186-1.685,2.87c-1.275,1.275-2.961,1.685-4.737,1.685h-1.868v-4.191
			h1.184c1.959,0,2.642-0.592,3.325-2.459l1.275-3.599l-8.062-22h4.92l5.511,16.261l5.375-16.261h4.965L157.681,40.856z"/>
		<path fill="#231F20" d="M182.413,36.256V34.16c-1.685,1.686-3.28,2.369-6.149,2.369c-2.87,0-4.783-0.683-6.195-2.096
			c-1.185-1.229-1.822-3.006-1.822-4.965c0-3.871,2.688-6.65,7.971-6.65h6.104v-1.64c0-2.915-1.457-4.327-5.055-4.327
			c-2.551,0-3.781,0.592-5.056,2.232l-3.052-2.869c2.186-2.551,4.464-3.326,8.29-3.326c6.331,0,9.52,2.688,9.52,7.926v15.442
			H182.413z M182.322,26.052h-5.42c-2.733,0-4.145,1.23-4.145,3.325c0,2.096,1.321,3.28,4.236,3.28c1.776,0,3.098-0.137,4.328-1.321
			c0.683-0.683,1.001-1.776,1.001-3.416V26.052z"/>
	</g>
	<g>
		<path fill="#231F20" d="M225.185,36.256V17.352l-6.195,12.299h-4.282l-6.24-12.299v18.903h-6.331V3.824h6.24l8.472,17.537
			l8.426-17.537h6.241v32.432H225.185z"/>
		<path fill="#231F20" d="M241.945,26.235c0,3.052,1.868,5.283,5.193,5.283c2.596,0,3.871-0.728,5.375-2.232l3.599,3.507
			c-2.414,2.414-4.738,3.735-9.019,3.735c-5.603,0-10.978-2.551-10.978-12.162c0-7.743,4.191-12.117,10.339-12.117
			c6.605,0,10.34,4.828,10.34,11.342v2.642H241.945z M250.417,19.63c-0.638-1.413-1.959-2.46-3.963-2.46
			c-2.004,0-3.325,1.047-3.963,2.46c-0.364,0.865-0.501,1.503-0.546,2.551h9.019C250.918,21.133,250.781,20.495,250.417,19.63z
			 M248.048,8.743h-3.963L247.001,1h6.24L248.048,8.743z"/>
		<path fill="#231F20" d="M268.726,36.529c-3.735,0-7.106-0.41-10.112-3.416l3.871-3.872c1.959,1.959,4.51,2.232,6.332,2.232
			c2.05,0,4.191-0.683,4.191-2.459c0-1.185-0.638-2.004-2.505-2.187l-3.735-0.364c-4.282-0.41-6.923-2.277-6.923-6.65
			c0-4.92,4.327-7.562,9.155-7.562c3.689,0,6.787,0.638,9.064,2.779l-3.643,3.689c-1.367-1.229-3.462-1.594-5.512-1.594
			c-2.369,0-3.37,1.093-3.37,2.278c0,0.866,0.364,1.868,2.459,2.05l3.735,0.364c4.692,0.455,7.06,2.961,7.06,6.969
			C278.793,34.023,274.329,36.529,268.726,36.529z"/>
	</g>
</g>
</svg>
