<?xml version="1.0" encoding="utf-8"?>
<!-- Generator: Adobe Illustrator 17.0.0, SVG Export Plug-In . SVG Version: 6.00 Build 0)  -->
<!DOCTYPE svg PUBLIC "-//W3C//DTD SVG 1.1//EN" "http://www.w3.org/Graphics/SVG/1.1/DTD/svg11.dtd">
<svg version="1.1" id="Layer_1" xmlns="http://www.w3.org/2000/svg" xmlns:xlink="http://www.w3.org/1999/xlink" x="0px" y="0px"
	 width="24px" height="24px" viewBox="0 0 24 24" enable-background="new 0 0 24 24" xml:space="preserve">
<path fill="#E74B4B" d="M22.032,3.69c-2.333-2.18-6.115-2.18-8.448,0L12,5.17l-1.584-1.48c-2.333-2.18-6.114-2.18-8.447,0
	c-2.624,2.452-2.624,6.428,0,8.88L12,21.944l10.032-9.374C24.656,10.118,24.656,6.143,22.032,3.69z M20.546,11.113L12,19.23
	l-8.545-8.117C2.593,10.308,2.259,9.249,2.259,8.13c0-1.118,0.192-2.035,1.054-2.84c0.761-0.712,1.784-1.104,2.878-1.104
	c1.095,0,2.118,0.676,2.879,1.388l2.929,2.595l2.928-2.595c0.761-0.712,1.784-1.388,2.879-1.388c1.095,0,2.117,0.392,2.879,1.104
	c0.862,0.805,1.054,1.722,1.054,2.84C21.742,9.249,21.408,10.308,20.546,11.113z"/>
</svg>
