<?xml version="1.0" encoding="utf-8"?>
<!-- Generator: Adobe Illustrator 17.0.0, SVG Export Plug-In . SVG Version: 6.00 Build 0)  -->
<!DOCTYPE svg PUBLIC "-//W3C//DTD SVG 1.1//EN" "http://www.w3.org/Graphics/SVG/1.1/DTD/svg11.dtd">
<svg version="1.1" id="Layer_1" xmlns="http://www.w3.org/2000/svg" xmlns:xlink="http://www.w3.org/1999/xlink" x="0px" y="0px"
	 width="24px" height="24px" viewBox="0 0 24 24" enable-background="new 0 0 24 24" xml:space="preserve">
<g>
	<g>
		<path fill="#83807F" d="M12,0C5.373,0,0,5.373,0,12c0,6.627,5.373,12,12,12c6.628,0,12-5.373,12-12C24,5.373,18.627,0,12,0z
			 M12,21.391c-5.186,0-9.391-4.205-9.391-9.391c0-5.187,4.205-9.391,9.391-9.391c5.187,0,9.392,4.205,9.392,9.391
			C21.391,17.187,17.187,21.391,12,21.391z M14.086,12.794c-0.507-0.507-0.979-0.979-1.047-1.047
			c-0.069-0.069-0.125-0.25-0.125-0.404V6.522c0-0.717-0.411-1.304-0.913-1.304c-0.502,0-0.913,0.587-0.913,1.304v5.64
			c0,0.119,0.034,0.25,0.075,0.292c0.041,0.041,0.49,0.49,0.997,0.997l2.447,2.447c0.507,0.507,1.213,0.632,1.568,0.277
			c0.355-0.355,0.231-1.061-0.277-1.568L14.086,12.794z"/>
	</g>
</g>
</svg>
